<?xml version="1.0" standalone="no"?>
<!DOCTYPE svg PUBLIC "-//W3C//DTD SVG 20010904//EN"
 "http://www.w3.org/TR/2001/REC-SVG-20010904/DTD/svg10.dtd">
<svg version="1.0" xmlns="http://www.w3.org/2000/svg"
 width="300.000000pt" height="411.000000pt" viewBox="0 0 300.000000 411.000000"
 preserveAspectRatio="xMidYMid meet">
<metadata>
Created by potrace 1.10, written by Peter Selinger 2001-2011
</metadata>
<g transform="translate(0.000000,411.000000) scale(0.100000,-0.100000)"
fill="#000000" stroke="none">
<path d="M1450 3241 c-14 -4 -53 -22 -87 -40 -50 -25 -66 -39 -79 -69 -19 -47
-44 -162 -44 -208 0 -29 -3 -33 -22 -31 -30 3 -39 -39 -28 -126 8 -68 22 -92
48 -82 6 3 18 8 26 11 11 4 17 -5 23 -33 11 -54 7 -271 -6 -287 -13 -16 25
-53 126 -120 40 -26 83 -59 95 -72 13 -13 28 -24 34 -24 6 0 32 19 58 41 53
47 78 94 64 122 -5 10 -4 59 3 124 9 83 17 115 35 143 27 41 45 108 25 96 -7
-5 -16 -18 -21 -30 -6 -14 -9 -16 -9 -5 -1 18 -41 58 -41 41 0 -6 5 -14 11
-17 5 -4 15 -18 20 -33 8 -21 5 -30 -20 -56 -29 -31 -57 -95 -30 -68 26 24 27
11 4 -33 -22 -40 -23 -50 -15 -98 12 -62 8 -110 -10 -133 -12 -14 -15 -13 -27
8 l-14 23 7 -24 c12 -46 -63 -58 -107 -17 -14 13 -36 27 -50 31 -13 4 -42 28
-64 52 l-40 43 6 88 c4 48 4 110 2 137 -4 40 -2 47 7 35 10 -12 11 -12 5 5 -5
11 -10 32 -13 48 -2 15 -11 27 -18 27 -13 0 -19 29 -16 73 1 10 -2 16 -7 13
-5 -4 -12 0 -15 6 -3 7 -4 -4 0 -25 3 -21 2 -47 -1 -57 -8 -24 -40 -26 -49 -4
-9 24 -7 36 4 29 6 -4 8 -11 5 -16 -3 -5 1 -6 9 -3 14 5 13 9 -1 30 -8 13 -19
24 -24 24 -12 0 -11 16 1 62 12 41 35 43 50 4 5 -13 7 11 6 64 -1 73 3 94 28
153 40 96 72 111 221 112 95 0 116 -3 152 -22 44 -24 86 -71 98 -112 6 -20 4
-23 -9 -18 -9 4 -16 3 -17 -1 0 -4 -2 -16 -4 -26 -2 -11 1 -29 7 -40 8 -15 8
-21 -1 -24 -7 -2 -2 -13 14 -28 14 -13 27 -24 29 -24 9 0 -8 178 -20 213 -16
46 -77 108 -133 136 -38 19 -138 26 -181 12z"/>
<path d="M1666 2953 c-4 -5 -12 -9 -17 -9 -5 -1 -15 -2 -21 -3 -7 -1 -26 -13
-42 -27 -25 -22 -28 -29 -22 -68 4 -24 16 -53 26 -64 21 -22 27 -52 11 -52 -5
0 -11 6 -14 13 -3 9 -10 9 -31 -3 -22 -11 -29 -12 -35 -1 -9 15 -59 11 -51 -4
6 -12 142 -16 161 -5 11 7 10 13 -5 29 -9 10 -19 35 -20 54 -2 19 -6 39 -10
45 -8 14 23 64 35 56 5 -3 9 0 9 5 0 6 6 11 14 11 8 0 18 5 21 11 9 13 1 22
-9 12z"/>
<path d="M1439 2906 c-2 -2 -23 -6 -47 -9 -53 -6 -81 -26 -31 -22 19 1 40 -3
47 -8 10 -8 16 -7 23 6 5 9 16 14 24 10 13 -4 12 -8 -5 -23 -28 -24 -25 -36 5
-16 28 18 39 21 30 6 -3 -5 -1 -10 4 -10 17 0 13 18 -11 45 -21 24 -30 29 -39
21z"/>
<path d="M1667 2882 c-31 -4 -32 -26 -1 -29 53 -4 64 -14 64 -59 0 -24 3 -44
8 -44 4 0 7 33 8 73 1 39 -1 64 -3 55 -4 -15 -7 -16 -26 -5 -12 7 -35 11 -50
9z"/>
<path d="M1790 2852 c-8 -4 -15 -18 -16 -32 0 -14 -3 -41 -7 -60 -7 -34 -7
-35 9 -12 9 13 14 29 11 36 -3 7 -1 19 3 26 6 10 11 6 16 -15 8 -32 -3 -56
-34 -70 -23 -10 -38 -53 -24 -67 5 -5 20 -8 33 -6 21 3 25 12 37 73 19 108 11
145 -28 127z"/>
<path d="M1470 2805 c0 -8 -10 -23 -22 -35 -12 -11 -18 -20 -12 -20 9 0 64 47
64 54 0 2 -7 6 -15 10 -9 3 -15 0 -15 -9z"/>
<path d="M1371 2701 c-16 -12 -22 -24 -18 -35 4 -10 11 -15 15 -12 5 3 22 -7
39 -22 16 -15 38 -29 49 -30 10 -2 25 -9 32 -14 7 -6 15 -8 19 -4 8 7 8 7 -41
29 -21 10 -36 21 -32 24 5 6 101 5 140 -1 22 -3 35 -26 15 -26 -7 0 -10 -3 -7
-6 3 -3 24 4 47 15 40 21 41 21 21 41 -10 10 -36 21 -57 24 -31 5 -33 4 -11
-3 15 -5 37 -16 50 -25 31 -22 2 -22 -42 0 -20 10 -35 13 -39 7 -3 -6 -15 -8
-26 -6 -11 2 -48 3 -82 3 -37 0 -63 5 -63 11 0 5 -6 7 -12 3 -7 -3 1 5 17 20
34 29 22 35 -14 7z"/>
<path d="M1443 2565 c43 -38 128 -38 167 1 l25 25 -30 -12 c-16 -7 -34 -16
-39 -21 -18 -15 -81 -8 -116 12 l-35 21 28 -26z"/>
<path d="M1374 2472 c21 -41 40 -53 86 -58 22 -2 48 -8 58 -13 19 -10 62 3 62
18 0 5 -24 10 -52 10 -65 0 -101 12 -130 46 -29 33 -42 32 -24 -3z"/>
<path d="M1185 2310 c-32 -34 -71 -63 -85 -65 -55 -11 -219 -70 -280 -101 -36
-19 -77 -38 -92 -44 -47 -16 -60 -59 -69 -225 -5 -82 -9 -267 -9 -410 -1 -233
2 -278 26 -430 14 -93 28 -184 30 -200 5 -40 61 -124 100 -150 l32 -21 -25
-60 c-34 -81 -85 -221 -148 -399 -29 -82 -56 -157 -59 -166 -5 -11 2 -18 29
-26 38 -12 42 -8 20 21 -12 16 -12 23 6 57 11 22 17 39 13 39 -4 0 -1 6 5 14
6 7 8 21 5 31 -5 13 -3 16 7 13 8 -3 13 -11 11 -17 -1 -7 2 -9 8 -6 8 5 5 14
-7 28 -10 11 -13 17 -7 14 7 -4 14 2 17 13 3 11 1 20 -4 20 -10 0 9 48 30 74
14 17 14 18 1 11 -13 -7 -13 -6 -2 7 12 15 27 57 37 102 7 30 22 41 38 28 11
-9 14 -8 14 3 0 8 -3 12 -7 10 -3 -2 -12 0 -20 6 -12 7 -9 9 10 9 14 0 20 4
15 8 -6 4 -10 14 -9 22 0 8 2 23 2 33 1 10 6 15 12 12 5 -3 10 2 10 12 0 14 2
15 9 5 5 -9 7 2 5 27 -2 33 2 43 17 52 31 16 62 7 70 -21 5 -21 7 -22 14 -7 9
21 38 22 55 2 7 -9 20 -13 28 -10 8 3 22 0 30 -7 13 -11 14 -11 8 1 -7 10 -1
12 30 8 22 -3 63 -9 92 -13 47 -6 53 -9 50 -28 -2 -17 -12 -22 -48 -26 l-45
-6 40 -5 c44 -7 65 4 65 32 0 24 21 24 96 0 33 -10 77 -21 99 -24 35 -4 146
-28 153 -32 1 -1 -11 -71 -27 -156 -27 -145 -80 -329 -103 -356 -8 -10 -5 -13
10 -13 23 0 62 55 62 88 0 11 5 24 10 27 6 3 10 17 10 30 0 13 5 25 12 27 7 3
12 24 13 53 0 27 5 50 11 52 21 7 59 -46 63 -89 1 -4 8 -4 18 -1 12 5 14 3 8
-8 -5 -7 -10 -20 -10 -29 -5 -51 -18 -99 -26 -94 -5 3 -9 -1 -9 -10 0 -8 -3
-21 -6 -30 -4 -10 -1 -16 8 -16 15 0 38 40 38 65 0 8 9 24 20 35 18 18 19 25
9 65 -10 39 -14 45 -33 40 -19 -6 -20 -5 -3 8 20 17 21 26 6 64 -7 15 -13 39
-14 53 -1 14 -5 35 -9 47 -4 12 -9 32 -11 44 -3 12 -10 26 -16 30 -8 5 -8 8 2
11 9 3 10 6 2 11 -16 10 -22 -14 -10 -43 5 -14 11 -39 12 -55 0 -17 5 -37 10
-45 5 -8 10 -19 12 -25 1 -5 5 -20 9 -33 6 -22 4 -22 -40 10 -50 35 -49 32
-32 118 2 14 7 44 10 68 7 56 13 64 44 62 44 -3 52 -1 46 15 -4 9 0 15 10 15
9 0 16 8 16 21 0 11 -5 17 -10 14 -6 -4 -8 -11 -5 -16 3 -5 -1 -6 -9 -3 -12 5
-13 10 -4 30 6 13 15 24 20 24 5 0 6 5 3 10 -4 6 -1 18 6 26 12 14 14 14 20
-3 4 -10 8 -38 9 -63 1 -41 2 -43 11 -20 6 14 9 44 6 67 l-4 42 41 6 c81 12
95 12 100 -1 3 -8 13 -14 21 -14 9 0 14 3 12 8 -3 4 24 5 60 4 58 -3 65 -6 74
-30 5 -14 8 -31 5 -39 -3 -7 -1 -13 4 -13 6 0 10 -11 10 -24 0 -20 -7 -25 -44
-35 -25 -6 -54 -11 -65 -11 -22 0 -44 35 -56 87 -3 18 -11 36 -17 39 -6 4 -8
2 -5 -3 4 -6 9 -26 11 -44 9 -65 21 -84 57 -88 48 -4 51 -4 80 3 38 11 54 -15
56 -92 1 -35 5 -87 9 -115 4 -29 8 -65 8 -82 1 -16 5 -35 8 -41 4 -6 6 -24 4
-40 -2 -16 1 -40 6 -53 5 -13 11 -40 14 -60 7 -42 8 -44 34 -48 22 -3 21 11
-7 91 -7 21 -13 59 -13 85 0 51 -28 289 -35 301 -3 5 -10 52 -15 106 -6 55
-13 107 -16 117 -5 15 2 17 61 17 53 0 75 5 109 25 56 33 76 56 121 143 35 67
37 77 27 106 -7 18 -16 67 -22 110 -5 43 -12 81 -15 86 -2 4 -9 41 -15 81 -13
91 -54 268 -86 372 -13 43 -24 89 -24 103 0 14 -9 50 -19 82 -10 31 -24 84
-31 117 -13 68 -33 105 -56 105 -8 0 -50 18 -92 40 -42 21 -120 55 -172 75
-130 50 -164 71 -184 112 -22 46 -28 38 -17 -20 4 -25 5 -76 2 -114 -3 -37 -4
-174 -1 -305 3 -130 2 -234 -2 -231 -5 2 -8 -3 -8 -12 0 -9 5 -13 10 -10 6 3
10 1 10 -6 0 -7 3 -9 7 -5 7 7 13 130 15 298 0 63 4 86 12 81 6 -4 5 1 -3 11
-13 15 -13 19 0 27 10 6 10 9 1 9 -6 0 -11 3 -11 8 1 4 0 9 -1 12 -1 3 -4 30
-5 60 -2 41 1 58 14 68 9 7 10 11 4 7 -7 -3 -13 -1 -13 4 0 6 5 11 11 11 5 0
7 5 4 10 -3 6 1 10 10 10 8 0 18 -6 21 -14 3 -8 13 -12 23 -9 13 3 29 -10 55
-46 21 -28 35 -55 32 -60 -6 -9 -64 -26 -78 -23 -12 3 -9 -13 4 -26 17 -17 33
-15 18 3 -10 12 -9 15 6 15 11 1 32 6 47 13 l28 12 -28 40 c-47 65 -48 67 -6
48 21 -10 40 -20 43 -23 3 -3 23 -11 45 -19 22 -8 42 -17 45 -20 7 -10 76 -41
89 -41 19 0 53 -41 47 -56 -3 -8 -1 -14 4 -14 10 0 13 12 11 45 -1 18 0 18 9
3 14 -23 20 -82 8 -89 -5 -4 -3 -13 6 -22 19 -19 20 -34 4 -40 -7 -3 -3 -6 8
-6 27 -1 34 -25 34 -112 0 -54 -5 -73 -25 -103 -14 -20 -25 -39 -25 -41 0 -2
-13 -26 -30 -52 -32 -50 -36 -63 -20 -63 6 0 10 5 10 10 0 6 18 36 41 66 22
30 49 74 59 97 15 34 20 38 26 23 5 -12 -17 -65 -66 -164 -79 -161 -105 -203
-122 -199 -7 1 -14 -7 -16 -17 -4 -18 -2 -17 24 2 58 43 64 50 64 66 0 10 5
14 12 10 7 -4 8 -3 4 4 -4 7 14 56 40 109 26 54 49 93 51 86 2 -6 -2 -24 -10
-40 -15 -28 -13 -53 4 -53 5 0 9 10 9 23 1 28 25 73 33 60 3 -5 7 -37 8 -71 1
-34 6 -62 11 -62 5 0 7 -4 3 -9 -3 -5 -1 -12 5 -16 13 -8 13 -55 0 -55 -5 0
-7 6 -4 14 4 11 0 13 -15 9 -17 -4 -21 -1 -21 18 0 22 0 22 -15 3 -8 -10 -15
-14 -15 -9 -1 6 -7 -3 -15 -20 -12 -27 -13 -28 -14 -7 -1 13 -5 21 -10 18 -5
-4 -12 0 -15 6 -3 7 -3 1 0 -14 4 -18 0 -32 -14 -45 -10 -10 -37 -35 -59 -55
-49 -45 -136 -149 -108 -128 11 8 36 31 55 51 19 20 45 42 57 48 13 6 22 17
20 23 -1 6 11 18 27 27 16 9 45 30 64 48 34 30 62 34 62 9 0 -12 -21 -33 -170
-165 -33 -30 -58 -56 -55 -59 2 -2 27 16 56 42 28 26 65 54 80 63 16 10 29 21
29 25 0 4 6 8 13 8 7 0 18 9 25 20 7 11 18 17 27 14 29 -11 15 -42 -37 -82
-29 -22 -69 -57 -88 -77 -35 -36 -35 -36 -100 -30 -36 4 -74 9 -85 11 -17 5
-17 2 5 -15 13 -11 28 -17 32 -15 3 2 9 1 12 -4 3 -5 27 -7 53 -6 65 2 63 2
63 19 0 8 3 15 8 15 4 0 27 19 52 43 57 55 79 64 72 31 -5 -28 -54 -69 -94
-79 -28 -7 -37 -28 -18 -40 13 -8 92 -152 88 -160 -2 -4 8 -13 22 -20 15 -9
19 -14 10 -15 -13 0 -13 -1 0 -10 37 -24 40 -4 5 36 -14 16 -33 45 -43 64 -10
19 -30 55 -46 79 -19 30 -25 46 -17 54 7 7 16 0 28 -21 10 -18 21 -32 26 -32
4 0 0 11 -9 25 -9 14 -12 25 -6 25 6 0 14 9 17 20 3 11 15 20 26 20 10 0 19 5
19 11 0 5 5 7 10 4 6 -4 8 -10 6 -14 -3 -4 7 -14 22 -22 15 -8 32 -21 39 -29
9 -12 8 -16 -8 -22 -16 -6 -18 -11 -9 -28 6 -11 8 -25 5 -30 -7 -12 17 -9 25
2 10 13 9 -72 0 -98 -14 -36 -31 -29 -27 11 4 36 -1 43 -20 24 -8 -8 -8 -20
-2 -36 10 -26 8 -45 -4 -54 -4 -3 -9 -16 -10 -28 -1 -13 -6 -20 -14 -17 -7 3
-13 -1 -13 -8 0 -26 -44 -44 -102 -42 -31 0 -55 -2 -53 -5 10 -15 -86 -37
-141 -31 -71 6 -196 5 -241 -3 -32 -6 -33 -5 -22 19 15 33 27 36 85 24 27 -6
49 -7 51 -2 2 5 49 8 105 6 57 -2 101 -1 98 2 -3 2 -36 6 -73 8 -38 1 -70 5
-72 8 -1 3 1 14 4 24 7 19 8 19 29 -2 14 -14 22 -17 22 -9 0 20 -68 45 -120
44 -48 0 -94 18 -85 33 3 6 -1 7 -10 3 -12 -4 -13 -8 -5 -13 7 -4 11 -13 9
-19 -3 -8 -11 -5 -25 7 -16 15 -22 16 -32 6 -19 -20 -15 -64 5 -64 13 0 14 3
6 11 -14 14 -6 39 12 39 22 0 28 -20 12 -38 -7 -9 -22 -42 -31 -72 -10 -30
-24 -68 -32 -85 -7 -16 -20 -48 -28 -70 -7 -22 -18 -39 -22 -38 -5 0 -54 8
-109 18 -55 9 -158 31 -230 50 -71 18 -182 41 -245 50 -63 9 -131 19 -150 22
l-35 6 52 12 c62 15 176 70 200 98 13 14 -2 9 -51 -17 -38 -20 -75 -36 -83
-36 -7 0 -13 -4 -13 -9 0 -5 -25 -15 -55 -22 -30 -7 -55 -16 -55 -21 0 -4 -7
-8 -15 -8 -8 0 -15 5 -15 10 0 6 -7 10 -16 10 -21 0 -45 25 -47 50 -1 11 -5
20 -9 20 -4 0 -5 9 -3 20 2 11 -1 23 -7 26 -7 5 -8 2 -3 -6 6 -9 4 -11 -4 -6
-7 5 -10 14 -7 22 3 8 1 14 -3 14 -5 0 -8 12 -6 27 2 16 -1 36 -6 45 -6 11 -5
19 1 23 8 5 7 11 -1 21 -6 8 -9 23 -6 34 3 11 1 20 -4 20 -13 0 -11 37 4 52
14 14 17 38 5 38 -5 0 -13 0 -19 0 -8 0 -8 -5 1 -15 8 -9 8 -15 2 -15 -21 0
-25 43 -6 57 16 12 16 13 1 13 -9 0 -17 6 -17 13 -2 55 -10 253 -13 297 -2 32
1 59 7 63 7 6 8 10 1 13 -14 6 -6 84 9 84 6 0 4 5 -4 10 -12 8 -13 11 -1 19 7
5 9 10 4 12 -11 5 -4 169 8 169 5 0 9 -7 9 -15 0 -9 20 -36 45 -61 25 -24 45
-40 45 -35 0 4 -7 14 -14 21 -8 6 -30 35 -48 63 -18 29 -37 55 -42 59 -13 9
-17 38 -5 38 6 0 7 6 0 17 -5 10 -5 26 0 40 5 13 6 23 3 23 -4 0 -1 7 6 15 6
8 9 19 5 25 -3 5 -2 10 2 10 5 0 13 10 18 23 7 15 19 22 39 22 16 1 31 6 34
13 5 17 81 55 97 48 7 -2 16 2 19 10 3 8 12 14 21 14 8 0 23 4 33 9 44 24 80
32 87 20 8 -11 45 12 45 28 0 6 9 10 19 8 11 -2 22 3 26 13 5 14 7 14 15 2 8
-13 10 -12 10 3 0 9 4 17 9 17 5 0 16 6 24 14 11 12 15 11 26 -6 7 -11 9 -18
4 -15 -5 3 -9 -3 -9 -13 0 -15 3 -16 14 -7 11 8 10 2 -2 -28 -9 -22 -24 -46
-33 -52 -9 -7 -13 -13 -7 -13 15 1 44 26 44 39 0 6 4 11 9 11 14 0 28 -22 44
-70 9 -25 20 -44 25 -43 5 1 8 -11 7 -27 -1 -16 2 -27 6 -24 6 3 17 -18 24
-46 3 -10 28 -66 42 -92 13 -26 13 -27 -4 -22 -13 4 -13 2 3 -8 12 -7 19 -19
17 -26 -3 -6 -10 -9 -15 -6 -7 4 -8 2 -4 -5 4 -6 11 -9 15 -6 9 5 35 -41 36
-65 1 -8 7 -14 14 -12 7 1 10 -2 7 -7 -4 -5 -2 -12 4 -16 13 -8 13 14 -1 53
-6 18 -15 29 -20 26 -5 -3 -6 1 -4 8 3 8 -22 81 -55 163 -33 83 -60 154 -60
159 0 6 -11 26 -25 46 -36 52 -67 148 -55 170 27 50 4 39 -65 -30z m1159 -972
c10 -11 13 -85 5 -135 -3 -15 -19 -18 -19 -3 0 5 -6 7 -14 4 -19 -7 -15 19 5
43 17 20 24 67 8 58 -5 -4 -8 5 -7 19 3 30 5 31 22 14z m22 -146 c0 -4 6 -20
13 -36 12 -30 6 -50 -8 -27 -5 7 -13 11 -18 8 -5 -3 -17 3 -26 14 -10 11 -23
17 -30 13 -8 -5 -7 -2 1 9 8 9 24 15 35 14 15 -1 21 3 19 13 -2 8 0 11 5 7 4
-5 8 -12 9 -15z m-552 -371 c-1 -27 12 -27 19 0 8 28 42 21 43 -9 1 -21 -2
-22 -38 -19 -45 5 -63 19 -54 42 8 23 31 13 30 -14z m114 -10 c-5 -24 -38 -27
-38 -3 0 10 3 21 6 25 11 11 35 -5 32 -22z"/>
<path d="M1541 2342 c-14 -25 -14 -42 -1 -42 16 0 33 41 22 52 -7 7 -14 3 -21
-10z"/>
<path d="M1078 2150 c-3 -19 -3 -38 1 -42 12 -14 121 -58 121 -49 0 5 -24 17
-52 27 -50 18 -53 21 -58 59 l-6 40 -6 -35z"/>
<path d="M1478 2133 c-14 -9 -31 -28 -38 -41 -10 -22 -9 -24 10 -19 36 9 50
-27 45 -120 -3 -64 -1 -83 11 -87 11 -4 13 1 9 24 -3 16 -1 31 4 34 4 3 7 -5
6 -18 -2 -19 2 -23 23 -22 14 1 27 -5 30 -13 2 -8 0 -11 -5 -8 -5 3 -10 0 -10
-8 0 -8 4 -12 9 -9 4 3 8 1 8 -5 0 -5 -5 -13 -10 -16 -6 -4 -8 -11 -5 -16 7
-10 -20 -54 -33 -54 -4 0 -6 -4 -4 -8 1 -5 -2 -6 -7 -2 -11 6 -5 31 13 54 8
11 8 13 -1 7 -8 -4 -13 -2 -14 6 -3 29 -4 33 -14 33 -5 0 -9 -7 -7 -15 1 -8 3
-30 3 -49 1 -19 7 -41 15 -48 7 -7 11 -19 8 -27 -3 -7 3 -19 13 -26 15 -12 16
-12 6 0 -18 19 -16 29 5 26 11 -2 17 -11 16 -25 -1 -20 0 -21 16 -6 13 12 20
13 25 5 8 -13 -1 -25 -18 -25 -7 0 -11 -9 -9 -19 2 -12 -1 -16 -9 -10 -8 4
-10 3 -5 -4 4 -7 2 -12 -4 -12 -6 0 -8 -5 -3 -12 4 -7 8 -19 8 -25 0 -21 20
-15 21 7 1 11 -3 17 -9 13 -5 -3 -7 0 -5 8 3 8 11 13 17 11 7 -1 9 2 6 8 -4 6
0 19 7 28 21 25 33 46 21 39 -5 -3 -9 2 -8 11 0 9 5 17 10 17 6 0 9 -12 8 -27
-1 -16 2 -28 6 -28 3 0 7 -9 7 -19 0 -14 -4 -17 -11 -11 -8 7 -12 5 -12 -5 0
-8 4 -12 8 -9 22 13 31 -93 17 -209 -3 -20 -2 -35 1 -31 3 3 6 9 7 12 0 4 6
20 13 37 15 35 10 123 -13 275 -8 58 -18 128 -21 155 -4 28 -15 69 -25 91 -30
69 -33 99 -14 136 15 30 18 31 24 12 8 -19 40 -52 40 -40 0 13 -46 76 -59 81
-38 15 -97 14 -123 -2z m88 -33 c1 -12 -6 -30 -16 -40 -21 -21 -24 -56 -3 -39
7 6 14 8 14 3 4 -31 4 -41 -3 -55 -8 -19 14 -44 27 -31 5 4 5 2 2 -4 -4 -6 0
-19 7 -30 8 -10 11 -25 8 -33 -4 -10 -1 -12 9 -6 12 8 12 6 0 -8 -11 -14 -11
-20 0 -34 8 -9 9 -14 3 -10 -7 4 -14 0 -18 -8 -3 -8 -1 -15 4 -15 16 0 32 -38
18 -46 -6 -4 -8 -3 -5 2 3 6 1 16 -4 24 -7 11 -8 6 -5 -15 4 -20 -1 -38 -15
-55 -10 -14 -17 -18 -14 -10 3 9 -4 21 -16 28 -15 10 -19 10 -14 1 5 -7 4 -10
-3 -5 -6 3 -10 15 -9 26 1 14 4 16 14 8 12 -10 17 -4 14 16 -1 4 3 14 10 22 6
7 8 18 5 23 -4 5 -2 12 3 16 11 6 9 40 -3 68 -7 14 -11 15 -22 6 -10 -8 -14
-8 -15 0 -4 32 -6 36 -17 33 -15 -3 -12 29 3 40 6 5 6 8 -2 8 -8 0 -10 15 -7
46 4 28 2 44 -4 40 -5 -3 -12 8 -14 25 -3 20 0 33 11 38 23 13 56 -3 57 -29z"/>
<path d="M1019 2111 c11 -7 10 -11 -5 -20 -18 -10 -18 -10 4 -11 13 0 22 -6
22 -16 0 -9 9 -29 21 -45 11 -16 17 -29 12 -29 -4 0 3 -7 15 -16 18 -13 21
-19 11 -30 -10 -12 -9 -13 6 -8 13 5 16 4 11 -4 -4 -7 -2 -12 5 -12 7 0 10 -3
6 -6 -3 -4 -1 -12 6 -20 29 -32 33 -40 29 -53 -3 -8 0 -11 6 -7 6 3 18 -13 27
-39 11 -26 22 -42 28 -38 8 5 7 8 -1 11 -7 2 -12 8 -12 14 0 12 -149 290 -160
298 -3 3 -9 13 -13 23 -3 9 -12 17 -19 17 -10 0 -10 -2 1 -9z"/>
<path d="M800 2072 c0 -4 6 -14 12 -20 10 -10 10 -15 -2 -22 -12 -8 -10 -10 8
-10 12 0 23 -4 23 -10 1 -5 2 -15 3 -22 0 -6 8 -13 16 -15 12 -4 12 -3 2 5 -8
5 -13 13 -13 18 1 15 -33 83 -41 84 -5 0 -8 -4 -8 -8z"/>
<path d="M1952 1992 c-1 -37 -7 -68 -12 -70 -5 -2 -7 -16 -4 -31 3 -15 -1 -52
-9 -82 -14 -54 -13 -56 9 -85 28 -34 30 -50 9 -58 -18 -7 -20 -42 -2 -49 7 -4
6 -6 -4 -6 -18 -1 -48 -31 -31 -31 5 0 29 7 52 15 40 14 66 12 45 -3 -6 -4
-11 -16 -13 -27 -2 -11 -11 -26 -20 -34 -15 -12 -15 -12 4 -7 19 6 21 3 18
-21 -2 -16 -6 -51 -8 -78 -3 -28 -10 -63 -15 -79 -6 -15 -11 -34 -11 -43 0
-13 3 -13 15 -3 8 7 15 9 15 4 0 -5 5 -1 11 9 6 10 13 59 16 110 3 51 9 97 13
102 14 18 24 167 11 174 -12 8 -17 223 -6 253 4 9 2 19 -3 22 -12 7 -29 -87
-37 -204 -3 -47 -11 -89 -17 -95 -8 -7 -9 -5 -5 7 3 9 3 18 -1 20 -4 2 -14 17
-23 33 -15 28 -15 39 2 150 20 131 23 175 12 175 -5 0 -9 -30 -11 -68z m73
-313 c4 -17 1 -30 -10 -39 -13 -11 -15 -10 -9 6 5 17 4 17 -7 -1 -6 -11 -13
-21 -14 -23 -1 -1 -9 0 -17 3 -10 4 -14 14 -11 26 4 13 8 17 13 9 9 -15 31 11
33 39 2 25 13 15 22 -20z"/>
<path d="M887 1904 c14 -31 26 -67 27 -80 0 -13 4 -24 7 -24 13 0 36 -75 34
-107 -2 -18 -10 -39 -18 -48 -14 -14 -17 -13 -31 7 -9 12 -16 18 -16 12 0 -18
33 -40 64 -43 l28 -3 -6 50 c-4 36 -2 52 7 55 8 4 7 6 -4 6 -14 1 -46 87 -43
118 1 7 -2 11 -6 8 -12 -7 -23 32 -14 46 4 7 3 9 -3 6 -6 -4 -16 7 -23 23 -7
17 -16 30 -21 30 -4 0 4 -25 18 -56z"/>
<path d="M2132 1947 c-6 -7 -14 -32 -18 -55 -4 -23 -12 -42 -18 -42 -6 0 -5
-4 3 -9 7 -5 10 -14 6 -21 -4 -6 -9 -35 -10 -63 -11 -159 -18 -221 -37 -300
-23 -103 -19 -127 7 -35 9 35 23 73 31 86 8 12 10 22 4 22 -5 0 -10 9 -10 21
0 11 3 18 8 16 4 -3 5 20 3 51 -4 64 14 201 36 280 15 55 14 72 -5 49z"/>
<path d="M943 1927 c-3 -6 -1 -7 5 -3 12 7 16 -5 12 -34 -1 -8 7 -4 19 10 11
14 20 20 21 15 0 -6 -5 -16 -11 -22 -8 -8 -7 -13 1 -18 18 -11 30 16 19 38 -9
15 -13 16 -27 5 -13 -11 -15 -11 -10 3 7 17 -19 22 -29 6z"/>
<path d="M1017 1839 c-13 -8 -15 -14 -7 -30 11 -20 35 -25 44 -10 4 5 -4 7
-16 4 -19 -4 -20 -3 -8 6 13 9 12 11 -4 11 -20 0 -20 0 0 15 22 17 17 19 -9 4z"/>
<path d="M1877 1733 c3 -7 0 -13 -6 -13 -7 0 -9 -12 -6 -32 4 -18 7 -54 7 -80
1 -26 4 -45 8 -43 4 3 7 25 6 50 -1 25 2 45 7 45 4 0 3 10 -4 21 -8 15 -8 28
-1 44 8 16 7 22 -3 22 -7 0 -11 -6 -8 -14z"/>
<path d="M710 1731 c0 -12 46 -59 179 -182 51 -48 103 -137 122 -211 13 -53
21 -108 12 -88 -3 8 -9 17 -13 20 -6 5 -54 91 -107 192 -13 25 -30 52 -38 58
-8 7 -13 16 -10 20 3 4 -2 10 -10 14 -8 3 -17 0 -21 -6 -5 -7 -2 -8 6 -3 10 6
12 4 7 -8 -3 -9 -2 -16 3 -14 4 1 20 -20 35 -48 65 -121 100 -182 161 -281 46
-74 63 -111 59 -125 -7 -20 -7 -19 -27 3 l-20 23 4 -25 c2 -21 -5 -30 -52 -56
-30 -17 -56 -38 -58 -47 -3 -14 3 -14 44 4 28 13 57 19 74 15 25 -4 29 -2 34
24 20 97 9 87 105 104 47 9 106 16 130 16 49 0 51 6 6 14 -61 11 -121 8 -168
-7 l-48 -16 -20 32 c-11 18 -22 44 -26 60 -3 15 -9 27 -12 27 -12 0 -34 123
-36 199 -1 50 -7 87 -18 108 -10 18 -17 35 -17 38 1 25 -2 28 -10 15 -5 -10
-2 -35 10 -70 11 -30 19 -73 19 -95 l0 -40 -29 61 c-15 34 -35 66 -43 71 -26
14 -187 165 -187 175 0 5 31 -17 69 -49 121 -102 153 -126 141 -107 -7 11 -51
52 -99 93 -89 75 -130 104 -117 82 4 -6 3 -11 -3 -11 -5 0 -15 8 -20 18 -7 11
-10 12 -11 3z"/>
<path d="M862 1731 c-11 -7 -11 -11 2 -23 8 -9 12 -19 8 -24 -4 -5 1 -2 11 5
12 10 14 17 7 26 -5 6 -7 15 -3 18 9 10 -10 8 -25 -2z"/>
<path d="M1489 1709 c-1 -8 0 -18 1 -24 1 -5 3 -21 5 -35 1 -14 5 -32 8 -40 3
-8 7 -24 9 -35 2 -11 6 -22 10 -26 4 -3 9 -18 12 -35 2 -16 6 -36 10 -45 4 -9
8 -33 9 -52 1 -19 5 -33 8 -31 8 4 26 -68 32 -128 2 -15 6 -31 10 -34 11 -11
8 -64 -3 -64 -6 0 -13 6 -16 13 -2 7 -13 13 -24 14 -23 2 -52 27 -43 37 4 3 1
6 -6 6 -7 0 -10 4 -6 9 3 5 1 12 -4 16 -9 5 -7 -27 2 -43 3 -4 -1 -20 -9 -37
l-14 -30 5 30 c4 22 3 26 -5 15 -5 -8 -10 -24 -11 -35 0 -20 0 -20 -9 0 -7 17
-9 16 -9 -9 -1 -19 -5 -26 -10 -20 -6 5 -6 27 -2 51 5 24 4 40 0 37 -5 -3 -9
-20 -9 -37 0 -22 -3 -28 -9 -18 -7 11 -10 9 -16 -8 -3 -12 -11 -19 -16 -16 -5
4 -9 1 -9 -4 0 -18 28 -12 33 7 4 16 5 16 6 0 1 -11 14 -21 33 -26 29 -7 34
-14 40 -51 5 -30 3 -54 -8 -82 -18 -43 -20 -43 -113 -32 -50 6 -52 7 -30 19
21 12 22 13 5 14 -11 0 -27 -7 -37 -16 -10 -9 -37 -17 -61 -17 -30 -1 -48 -7
-60 -22 -10 -11 -17 -16 -18 -11 0 5 -9 1 -20 -9 -11 -10 -17 -23 -13 -29 4
-6 -2 -4 -12 4 -11 9 -16 10 -11 3 4 -8 1 -13 -8 -13 -9 0 -16 -4 -16 -9 0 -5
-13 -14 -30 -21 -16 -7 -28 -16 -25 -20 2 -4 -7 -6 -20 -4 -16 1 -23 -2 -18
-9 4 -7 0 -8 -12 -4 -9 4 -23 3 -30 -3 -7 -6 -26 -12 -43 -13 -17 -1 -30 -6
-29 -12 1 -5 -6 -9 -15 -9 -10 1 -18 -2 -18 -7 0 -13 28 -11 85 6 27 9 55 13
63 10 7 -2 11 -1 8 4 -3 5 1 12 10 15 9 4 13 2 8 -5 -9 -15 144 87 179 119 15
14 27 22 27 19 0 -4 9 -3 20 3 17 9 27 4 70 -36 53 -50 68 -46 24 5 l-26 31
35 0 c28 0 42 -8 76 -45 32 -35 49 -45 77 -47 19 -1 39 -8 42 -15 4 -7 19 -14
32 -17 14 -2 27 -5 30 -6 3 -2 8 -2 13 -1 4 0 7 -3 7 -9 0 -5 6 -7 14 -4 19 7
39 -31 31 -58 -5 -15 -3 -19 6 -16 9 3 15 23 17 50 l3 46 -55 7 c-66 9 -74 33
-21 63 13 7 15 11 6 12 -11 0 -9 4 5 15 10 8 14 15 7 15 -6 0 -11 14 -11 33 0
17 0 34 -1 37 -9 26 -5 95 6 105 11 11 10 15 -8 20 -17 6 -19 12 -13 33 10 39
12 75 3 92 -4 8 -12 40 -18 70 -17 86 -21 102 -32 122 -5 10 -7 18 -4 18 3 0
1 8 -4 18 -7 14 -6 25 6 43 15 21 15 23 1 11 -23 -19 -27 -10 -52 125 -11 59
-25 91 -27 62z m91 -565 c15 -17 27 -189 18 -244 -9 -51 -21 -68 -40 -53 -7 6
-29 13 -50 17 -47 9 -67 49 -28 59 14 4 20 14 20 35 0 20 8 36 22 46 17 12 20
18 10 28 -7 7 -12 27 -12 45 0 23 -5 33 -15 33 -17 0 -19 14 -6 39 11 20 63
18 81 -5z"/>
<path d="M1101 1686 c-7 -8 -11 -29 -9 -47 3 -32 3 -31 14 14 12 52 11 53 -5
33z"/>
<path d="M1821 1437 c-24 -61 -65 -153 -90 -203 -45 -88 -46 -91 -22 -84 14 3
26 13 29 21 3 11 2 11 -7 -1 -6 -8 -11 -11 -11 -7 0 5 9 21 19 36 11 15 23 39
26 54 4 14 17 37 28 49 12 13 23 39 25 58 7 84 38 137 75 131 5 -1 6 3 2 8 -3
6 -12 8 -21 4 -12 -4 -14 0 -8 21 13 52 -2 24 -45 -87z"/>
<path d="M1600 1533 c0 -6 5 -15 10 -18 6 -3 10 -11 10 -16 0 -6 -4 -8 -9 -4
-5 3 -13 1 -16 -5 -4 -6 -1 -9 6 -8 6 2 14 -3 17 -11 2 -8 0 -11 -5 -8 -5 3
-10 0 -10 -8 0 -11 4 -12 13 -4 7 6 12 18 12 27 0 9 1 22 3 27 2 6 0 11 -5 12
-5 1 -13 7 -17 15 -6 9 -9 9 -9 1z"/>
<path d="M1351 1480 c-1 -25 2 -31 8 -21 7 11 11 4 16 -25 11 -65 13 -70 14
-38 0 16 7 36 14 43 8 10 9 12 0 7 -14 -8 -37 29 -27 45 4 7 14 4 27 -8 l22
-18 -19 22 c-14 17 -22 20 -32 13 -8 -8 -14 -7 -17 2 -3 7 -6 -3 -6 -22z"/>
<path d="M1436 1335 c4 -11 7 -28 8 -37 0 -9 4 -15 8 -12 4 2 11 -4 17 -13 6
-10 11 -13 11 -8 0 6 -12 28 -26 50 -14 22 -22 31 -18 20z"/>
<path d="M2030 1335 c0 -25 -31 -66 -58 -76 -15 -6 -22 -15 -18 -24 3 -8 -1
-27 -9 -42 -8 -15 -15 -35 -16 -43 -1 -8 -5 -4 -9 10 -8 24 -8 24 -9 3 -1 -13
-5 -23 -10 -23 -15 0 -48 52 -56 87 -8 37 -25 54 -25 25 0 -18 12 -47 35 -82
18 -28 14 -40 -11 -36 -29 6 -32 -9 -4 -24 11 -6 31 -22 46 -35 15 -14 30 -23
33 -19 3 3 -5 14 -19 24 l-25 19 30 12 c46 18 129 140 133 195 2 24 1 44 -2
44 -3 0 -6 -7 -6 -15z"/>
<path d="M760 1190 c0 -14 27 -19 40 -7 10 9 12 8 7 -5 -6 -18 -4 -20 31 -21
9 -1 21 -7 25 -14 4 -7 13 -13 20 -13 8 0 7 3 -2 9 -8 5 -11 16 -8 24 4 11 0
13 -15 9 -16 -4 -19 -2 -14 9 4 8 1 6 -7 -4 -14 -17 -16 -17 -19 -1 -3 17 -58
31 -58 14z"/>
<path d="M944 1091 c-62 -41 -97 -74 -107 -103 -8 -24 8 -23 25 0 17 24 90 71
151 98 l48 20 -26 12 c-14 7 -27 12 -28 12 -2 0 -30 -17 -63 -39z"/>
<path d="M914 1000 c-38 -27 -62 -50 -53 -50 8 0 33 15 55 33 21 18 50 41 64
50 13 9 20 17 14 17 -6 0 -42 -22 -80 -50z"/>
<path d="M2267 1044 c-3 -4 -1 -16 5 -28 7 -11 11 -25 10 -29 -1 -5 2 -6 8 -2
5 3 10 1 10 -6 0 -7 3 -10 6 -7 3 4 -3 22 -13 42 -10 20 -22 34 -26 30z"/>
<path d="M2151 969 c6 -12 9 -30 6 -40 -3 -12 0 -19 10 -19 8 0 13 6 10 13 -2
6 -1 22 4 34 6 15 4 23 -7 27 -28 11 -35 6 -23 -15z"/>
<path d="M1082 972 c-6 -4 14 -15 44 -23 52 -16 54 -16 39 0 -8 10 -13 20 -11
22 7 7 -60 8 -72 1z"/>
<path d="M1010 939 c-19 -5 -50 -9 -67 -10 -18 -1 -33 -6 -33 -11 0 -4 -6 -8
-14 -8 -42 0 -122 -77 -101 -98 3 -3 5 0 5 7 0 7 5 9 13 5 6 -4 9 -4 5 0 -10
12 41 56 58 49 7 -3 20 2 29 10 8 8 26 14 40 13 14 -2 25 1 25 6 0 5 6 8 12 6
7 -3 19 1 26 9 7 7 22 13 33 13 10 0 19 5 19 10 0 11 -2 11 -50 -1z"/>
<path d="M1203 872 c-13 -14 -23 -30 -23 -36 0 -6 11 1 24 15 12 14 29 28 36
31 12 4 11 5 -1 10 -7 3 -24 -6 -36 -20z"/>
<path d="M2025 870 l-50 -7 45 -1 c25 -1 52 3 60 8 8 5 11 9 5 8 -5 -1 -32 -4
-60 -8z"/>
<path d="M2113 823 c-18 -7 -16 -20 2 -20 8 0 15 4 15 8 0 4 10 5 22 1 14 -3
19 -2 14 6 -7 12 -31 14 -53 5z"/>
<path d="M1115 692 c-13 -13 9 -19 42 -12 20 5 40 7 44 4 4 -2 10 0 13 5 5 8
-91 11 -99 3z"/>
<path d="M1334 656 c-4 -9 -4 -20 0 -23 3 -4 6 -1 6 5 0 21 30 13 40 -10 5
-13 9 -17 9 -11 1 16 46 11 46 -5 0 -6 3 -14 8 -18 4 -4 7 0 7 9 0 11 5 14 17
10 12 -5 14 -3 8 7 -5 9 -4 11 3 6 7 -4 12 -15 13 -24 0 -10 3 -12 5 -5 3 7
13 9 22 6 14 -4 15 -3 2 6 -8 5 -11 13 -7 17 10 10 38 -16 30 -29 -3 -6 -1 -7
5 -3 9 5 9 13 2 26 -8 15 -20 18 -61 16 -28 -1 -52 1 -55 5 -2 3 -16 9 -31 12
-16 3 -36 9 -45 12 -12 5 -20 1 -24 -9z"/>
<path d="M881 591 c-9 -6 15 -9 65 -9 67 1 73 2 39 9 -54 11 -87 11 -104 0z"/>
<path d="M1065 490 c5 -8 10 -21 11 -29 2 -7 11 -23 22 -35 10 -11 24 -28 30
-36 6 -8 23 -28 37 -45 l26 -30 -23 35 c-13 19 -38 52 -56 73 -18 21 -30 42
-27 46 2 5 -3 15 -12 22 -15 12 -16 12 -8 -1z"/>
<path d="M797 187 c-25 -48 -57 -127 -57 -140 0 -7 19 28 41 76 23 49 39 90
37 92 -2 2 -11 -10 -21 -28z"/>
<path d="M1835 210 c3 -5 -4 -19 -15 -30 -12 -12 -23 -31 -24 -44 -1 -12 -6
-28 -11 -35 -5 -10 -4 -12 4 -7 6 4 18 23 26 42 8 19 21 42 30 50 15 16 12 34
-6 34 -6 0 -8 -4 -4 -10z"/>
<path d="M1616 174 c-11 -8 -14 -14 -8 -14 7 0 12 -9 12 -21 0 -11 -3 -18 -7
-16 -5 3 -6 -24 -5 -59 2 -35 8 -64 12 -64 6 0 16 119 15 187 0 1 -9 -5 -19
-13z"/>
<path d="M1737 74 c-3 -4 -2 -15 3 -25 6 -9 8 -24 5 -31 -3 -8 2 -14 14 -15
19 -2 19 0 4 35 -18 44 -18 44 -26 36z"/>
</g>
</svg>
